<mxfile host="app.diagrams.net" modified="2024-05-04T09:25:42.992Z" agent="Mozilla/5.0 (Windows NT 10.0; Win64; x64) AppleWebKit/537.36 (KHTML, like Gecko) Chrome/124.0.0.0 Safari/537.36 Edg/124.0.0.0" etag="F7zxFCmi7bM5EipqJefE" version="24.3.1" type="github">
  <diagram id="C5RBs43oDa-KdzZeNtuy" name="Page-1">
    <mxGraphModel dx="996" dy="586" grid="0" gridSize="10" guides="1" tooltips="1" connect="1" arrows="1" fold="1" page="0" pageScale="1" pageWidth="827" pageHeight="1169" math="0" shadow="0">
      <root>
        <mxCell id="WIyWlLk6GJQsqaUBKTNV-0" />
        <mxCell id="WIyWlLk6GJQsqaUBKTNV-1" parent="WIyWlLk6GJQsqaUBKTNV-0" />
        <mxCell id="JH5tbKWnWqqwqb8UsRxP-0" value="结束" style="strokeWidth=2;html=1;shape=mxgraph.flowchart.terminator;whiteSpace=wrap;fontSize=14;" vertex="1" parent="WIyWlLk6GJQsqaUBKTNV-1">
          <mxGeometry x="439" y="637.5" width="100" height="60" as="geometry" />
        </mxCell>
        <mxCell id="JH5tbKWnWqqwqb8UsRxP-4" value="" style="edgeStyle=orthogonalEdgeStyle;rounded=0;orthogonalLoop=1;jettySize=auto;html=1;" edge="1" parent="WIyWlLk6GJQsqaUBKTNV-1" source="JH5tbKWnWqqwqb8UsRxP-1" target="JH5tbKWnWqqwqb8UsRxP-2">
          <mxGeometry relative="1" as="geometry" />
        </mxCell>
        <mxCell id="JH5tbKWnWqqwqb8UsRxP-1" value="开始" style="strokeWidth=2;html=1;shape=mxgraph.flowchart.terminator;whiteSpace=wrap;fontSize=14;" vertex="1" parent="WIyWlLk6GJQsqaUBKTNV-1">
          <mxGeometry x="245" y="130" width="100" height="60" as="geometry" />
        </mxCell>
        <mxCell id="JH5tbKWnWqqwqb8UsRxP-6" value="" style="edgeStyle=orthogonalEdgeStyle;rounded=0;orthogonalLoop=1;jettySize=auto;html=1;" edge="1" parent="WIyWlLk6GJQsqaUBKTNV-1" source="JH5tbKWnWqqwqb8UsRxP-2" target="JH5tbKWnWqqwqb8UsRxP-5">
          <mxGeometry relative="1" as="geometry" />
        </mxCell>
        <mxCell id="JH5tbKWnWqqwqb8UsRxP-2" value="进入学习页面" style="rounded=1;whiteSpace=wrap;html=1;absoluteArcSize=1;arcSize=14;strokeWidth=2;fontSize=14;" vertex="1" parent="WIyWlLk6GJQsqaUBKTNV-1">
          <mxGeometry x="240" y="230" width="110" height="50" as="geometry" />
        </mxCell>
        <mxCell id="JH5tbKWnWqqwqb8UsRxP-8" value="" style="edgeStyle=orthogonalEdgeStyle;rounded=0;orthogonalLoop=1;jettySize=auto;html=1;" edge="1" parent="WIyWlLk6GJQsqaUBKTNV-1" source="JH5tbKWnWqqwqb8UsRxP-5" target="JH5tbKWnWqqwqb8UsRxP-7">
          <mxGeometry relative="1" as="geometry" />
        </mxCell>
        <mxCell id="JH5tbKWnWqqwqb8UsRxP-9" value="否" style="edgeLabel;html=1;align=center;verticalAlign=middle;resizable=0;points=[];" vertex="1" connectable="0" parent="JH5tbKWnWqqwqb8UsRxP-8">
          <mxGeometry x="-0.1491" y="-3" relative="1" as="geometry">
            <mxPoint as="offset" />
          </mxGeometry>
        </mxCell>
        <mxCell id="JH5tbKWnWqqwqb8UsRxP-16" value="" style="edgeStyle=orthogonalEdgeStyle;rounded=0;orthogonalLoop=1;jettySize=auto;html=1;" edge="1" parent="WIyWlLk6GJQsqaUBKTNV-1" source="JH5tbKWnWqqwqb8UsRxP-5" target="JH5tbKWnWqqwqb8UsRxP-10">
          <mxGeometry relative="1" as="geometry" />
        </mxCell>
        <mxCell id="JH5tbKWnWqqwqb8UsRxP-17" value="是" style="edgeLabel;html=1;align=center;verticalAlign=middle;resizable=0;points=[];" vertex="1" connectable="0" parent="JH5tbKWnWqqwqb8UsRxP-16">
          <mxGeometry x="-0.2" y="1" relative="1" as="geometry">
            <mxPoint as="offset" />
          </mxGeometry>
        </mxCell>
        <mxCell id="JH5tbKWnWqqwqb8UsRxP-5" value="是否已登录" style="shape=rhombus;perimeter=rhombusPerimeter;whiteSpace=wrap;html=1;align=center;fontSize=14;" vertex="1" parent="WIyWlLk6GJQsqaUBKTNV-1">
          <mxGeometry x="245" y="330" width="100" height="70" as="geometry" />
        </mxCell>
        <mxCell id="JH5tbKWnWqqwqb8UsRxP-7" value="进入登录页面" style="rounded=1;whiteSpace=wrap;html=1;absoluteArcSize=1;arcSize=14;strokeWidth=2;fontSize=14;" vertex="1" parent="WIyWlLk6GJQsqaUBKTNV-1">
          <mxGeometry x="80" y="340" width="110" height="50" as="geometry" />
        </mxCell>
        <mxCell id="JH5tbKWnWqqwqb8UsRxP-18" value="" style="edgeStyle=orthogonalEdgeStyle;rounded=0;orthogonalLoop=1;jettySize=auto;html=1;" edge="1" parent="WIyWlLk6GJQsqaUBKTNV-1" source="JH5tbKWnWqqwqb8UsRxP-10" target="JH5tbKWnWqqwqb8UsRxP-11">
          <mxGeometry relative="1" as="geometry" />
        </mxCell>
        <mxCell id="JH5tbKWnWqqwqb8UsRxP-19" value="" style="edgeStyle=orthogonalEdgeStyle;rounded=0;orthogonalLoop=1;jettySize=auto;html=1;" edge="1" parent="WIyWlLk6GJQsqaUBKTNV-1" source="JH5tbKWnWqqwqb8UsRxP-10" target="JH5tbKWnWqqwqb8UsRxP-14">
          <mxGeometry relative="1" as="geometry">
            <Array as="points">
              <mxPoint x="380" y="475" />
              <mxPoint x="380" y="525" />
            </Array>
          </mxGeometry>
        </mxCell>
        <mxCell id="JH5tbKWnWqqwqb8UsRxP-25" style="edgeStyle=orthogonalEdgeStyle;rounded=0;orthogonalLoop=1;jettySize=auto;html=1;entryX=0;entryY=0.5;entryDx=0;entryDy=0;" edge="1" parent="WIyWlLk6GJQsqaUBKTNV-1" source="JH5tbKWnWqqwqb8UsRxP-10" target="JH5tbKWnWqqwqb8UsRxP-21">
          <mxGeometry relative="1" as="geometry">
            <Array as="points">
              <mxPoint x="380" y="475" />
              <mxPoint x="380" y="415" />
            </Array>
          </mxGeometry>
        </mxCell>
        <mxCell id="JH5tbKWnWqqwqb8UsRxP-10" value="点击单词书模块" style="rounded=1;whiteSpace=wrap;html=1;absoluteArcSize=1;arcSize=14;strokeWidth=2;fontSize=14;" vertex="1" parent="WIyWlLk6GJQsqaUBKTNV-1">
          <mxGeometry x="240" y="450" width="110" height="50" as="geometry" />
        </mxCell>
        <mxCell id="JH5tbKWnWqqwqb8UsRxP-24" value="" style="edgeStyle=orthogonalEdgeStyle;rounded=0;orthogonalLoop=1;jettySize=auto;html=1;" edge="1" parent="WIyWlLk6GJQsqaUBKTNV-1" source="JH5tbKWnWqqwqb8UsRxP-11" target="JH5tbKWnWqqwqb8UsRxP-23">
          <mxGeometry relative="1" as="geometry" />
        </mxCell>
        <mxCell id="JH5tbKWnWqqwqb8UsRxP-11" value="设置学习计划" style="rounded=1;whiteSpace=wrap;html=1;absoluteArcSize=1;arcSize=14;strokeWidth=2;fontSize=14;" vertex="1" parent="WIyWlLk6GJQsqaUBKTNV-1">
          <mxGeometry x="240" y="550" width="110" height="50" as="geometry" />
        </mxCell>
        <mxCell id="JH5tbKWnWqqwqb8UsRxP-20" style="edgeStyle=orthogonalEdgeStyle;rounded=0;orthogonalLoop=1;jettySize=auto;html=1;entryX=1;entryY=0.5;entryDx=0;entryDy=0;exitX=0.5;exitY=1;exitDx=0;exitDy=0;" edge="1" parent="WIyWlLk6GJQsqaUBKTNV-1" source="JH5tbKWnWqqwqb8UsRxP-14" target="JH5tbKWnWqqwqb8UsRxP-11">
          <mxGeometry relative="1" as="geometry" />
        </mxCell>
        <mxCell id="JH5tbKWnWqqwqb8UsRxP-14" value="更换单词书" style="rounded=1;whiteSpace=wrap;html=1;absoluteArcSize=1;arcSize=14;strokeWidth=2;fontSize=14;" vertex="1" parent="WIyWlLk6GJQsqaUBKTNV-1">
          <mxGeometry x="429" y="500" width="110" height="50" as="geometry" />
        </mxCell>
        <mxCell id="JH5tbKWnWqqwqb8UsRxP-21" value="查看单词书单词列表" style="rounded=1;whiteSpace=wrap;html=1;absoluteArcSize=1;arcSize=14;strokeWidth=2;fontSize=14;" vertex="1" parent="WIyWlLk6GJQsqaUBKTNV-1">
          <mxGeometry x="414" y="390" width="140" height="50" as="geometry" />
        </mxCell>
        <mxCell id="JH5tbKWnWqqwqb8UsRxP-26" value="" style="edgeStyle=orthogonalEdgeStyle;rounded=0;orthogonalLoop=1;jettySize=auto;html=1;" edge="1" parent="WIyWlLk6GJQsqaUBKTNV-1" source="JH5tbKWnWqqwqb8UsRxP-23" target="JH5tbKWnWqqwqb8UsRxP-0">
          <mxGeometry relative="1" as="geometry" />
        </mxCell>
        <mxCell id="JH5tbKWnWqqwqb8UsRxP-23" value="显示预计完成时间" style="rounded=1;whiteSpace=wrap;html=1;absoluteArcSize=1;arcSize=14;strokeWidth=2;fontSize=14;" vertex="1" parent="WIyWlLk6GJQsqaUBKTNV-1">
          <mxGeometry x="230" y="645" width="130" height="45" as="geometry" />
        </mxCell>
      </root>
    </mxGraphModel>
  </diagram>
</mxfile>
